<svg width="1920" height="150" viewBox="0 0 1920 150" fill="none" xmlns="http://www.w3.org/2000/svg">
<rect width="1920" height="150" fill="white"/>
<g clip-path="url(#clip0)">
<path d="M999.561 36.6034L998.398 35.4405C998.114 35.1565 997.737 35 997.335 35C997.037 35 996.748 35.0876 996.5 35.2531L995.078 36.2024L994.733 35.8572C994.45 35.5747 993.992 35.5747 993.71 35.8572C993.427 36.14 993.427 36.598 993.71 36.8805L993.851 37.0214L992.762 37.7481C992.386 37.9992 992.145 38.4013 992.101 38.8513C992.078 39.0767 992.107 39.2999 992.181 39.5067L991.588 40.0615L990.969 39.4432C991.132 39.1816 991.25 38.9052 991.31 38.6288C991.442 38.0321 991.304 37.4766 990.932 37.105C990.656 36.8297 990.27 36.6779 989.844 36.6779C989.222 36.6779 988.558 36.9847 988.023 37.5194C987.092 38.451 986.91 39.7285 987.609 40.428C987.885 40.7035 988.271 40.8551 988.697 40.8551C989.112 40.8551 989.545 40.716 989.946 40.4663L990.53 41.0501L987.636 43.7558L987.146 43.2661C987.309 43.0048 987.426 42.7284 987.487 42.4521C987.618 41.8554 987.48 41.2999 987.109 40.9285C986.833 40.653 986.447 40.5012 986.021 40.5012C985.399 40.5012 984.735 40.8078 984.2 41.3426C983.269 42.2741 983.087 43.5518 983.786 44.2511C984.061 44.5266 984.448 44.6784 984.874 44.6784C985.289 44.6784 985.722 44.5391 986.123 44.2894L986.578 44.7446L970.07 60.1785C967.455 58.358 964.477 57.2624 961.61 57.0789C958.347 56.8705 955.432 57.8732 953.403 59.9026C953.14 60.1655 952.892 60.425 952.654 60.6832L940.154 48.1831C940.154 48.1829 940.153 48.1826 940.153 48.1824L937.634 45.664C936.888 44.9184 935.897 44.5078 934.843 44.5078C934.034 44.5078 933.263 44.7513 932.611 45.2004L932.235 44.824C931.952 44.5414 931.494 44.5414 931.211 44.824C930.929 45.1067 930.929 45.5647 931.211 45.8473L949.91 64.5461C949.876 64.6143 949.841 64.6825 949.808 64.751C949.434 65.376 948.581 66.4917 946.996 67.1395C946.428 67.373 946.063 67.9177 946.065 68.5273C946.066 69.1212 946.407 69.6277 946.951 69.8476C946.968 69.8547 947.159 69.9433 947.159 69.9433C947.38 70.0301 947.542 70.1524 947.651 70.3147C947.972 70.7944 947.806 71.6853 947.207 72.6977C946.493 73.9055 945.277 75.1408 943.784 76.1766C941.678 77.6387 939.315 78.4423 937.902 78.174C937.495 78.0969 937.207 77.937 937.049 77.7001C937.036 77.6809 936.916 77.4835 936.5 76.4709C936.297 75.9776 935.837 75.6703 935.3 75.6687C935.299 75.6687 935.297 75.6687 935.296 75.6687C934.748 75.6687 934.256 75.9973 934.042 76.5065C933.745 77.2136 933.321 77.8457 932.782 78.3853C932.176 78.9904 931.44 79.4551 930.651 79.7286C927.6 80.783 925.07 82.2572 923.335 83.9918C920.461 86.8658 919.395 90.9604 920.333 95.5216C921.201 99.741 923.678 104.064 927.309 107.695C930.938 111.324 935.261 113.801 939.48 114.668C940.56 114.89 941.613 115 942.631 115C945.911 115 948.816 113.859 951.009 111.666C952.742 109.933 954.217 107.404 955.274 104.352C955.799 102.835 956.973 101.598 958.492 100.96C958.661 100.89 958.811 100.79 958.938 100.664C959.258 100.344 959.396 99.8881 959.308 99.4449C959.222 99.0138 958.938 98.6698 958.529 98.5003C957.536 98.0931 957.333 97.9733 957.302 97.9533C957.065 97.7948 956.906 97.5086 956.829 97.1029C956.56 95.6912 957.363 93.3259 958.825 91.2171C959.86 89.7238 961.096 88.5083 962.303 87.7946C963.316 87.1963 964.207 87.0307 964.687 87.3515C964.849 87.4605 964.972 87.6224 965.061 87.8462L965.152 88.0473C965.374 88.5942 965.88 88.935 966.474 88.9368C966.476 88.9368 966.477 88.9368 966.478 88.9368C967.086 88.9368 967.629 88.5716 967.862 88.0048C968.515 86.4128 969.629 85.5655 970.251 85.1954C970.32 85.1621 970.388 85.1272 970.457 85.0927L994.203 108.839C994.344 108.981 994.53 109.051 994.715 109.051C994.9 109.051 995.085 108.98 995.226 108.839C995.509 108.557 995.509 108.098 995.226 107.816L991.778 104.368L994.058 102.088L974.318 82.3475C974.576 82.1098 974.835 81.8614 975.098 81.5986C977.127 79.5701 978.129 76.6561 977.92 73.394C977.737 70.5261 976.641 67.5483 974.821 64.9337L988.409 50.3996L989.102 51.0922C988.94 51.3536 988.822 51.6298 988.761 51.9058C988.63 52.5026 988.768 53.0581 989.14 53.4295C989.415 53.705 989.802 53.8567 990.228 53.8567C990.85 53.8567 991.514 53.5501 992.049 53.0152C992.98 52.0836 993.162 50.8062 992.463 50.1069C992.187 49.8314 991.801 49.6796 991.375 49.6796C990.959 49.6796 990.527 49.8189 990.125 50.0687L989.398 49.3417L992.104 46.4473L992.924 47.2676C992.409 48.0997 992.399 49.0412 992.963 49.606C993.239 49.8815 993.625 50.0333 994.051 50.0333C994.673 50.0333 995.337 49.7266 995.872 49.1919C996.275 48.7884 996.557 48.2965 996.664 47.807C996.796 47.2103 996.658 46.6548 996.286 46.2834C996.01 46.0079 995.624 45.8561 995.198 45.8561C994.783 45.8561 994.35 45.9954 993.948 46.2452L993.093 45.3898L995.495 42.8197C995.656 42.877 995.826 42.9087 996.001 42.9087C996.506 42.9087 996.974 42.6587 997.253 42.2398L997.98 41.1512L998.122 41.2934C998.263 41.4346 998.449 41.5054 998.634 41.5054C998.819 41.5054 999.004 41.4346 999.145 41.2935C999.428 41.011 999.428 40.5528 999.145 40.2702L998.799 39.924L999.748 38.5019C1000.15 37.9076 1000.07 37.1092 999.561 36.6034ZM988.634 39.4018C988.602 39.2967 988.673 38.9168 989.046 38.5429C989.335 38.2544 989.655 38.1252 989.844 38.1252C989.874 38.1252 989.894 38.1287 989.906 38.1318C989.939 38.2367 989.868 38.6167 989.494 38.9908C989.206 39.2793 988.886 39.4083 988.697 39.4083C988.667 39.4083 988.646 39.4049 988.634 39.4018ZM984.811 43.2253C984.778 43.1203 984.849 42.7405 985.223 42.3664C985.512 42.0779 985.831 41.9487 986.02 41.9487C986.05 41.9487 986.071 41.9522 986.083 41.9552C986.116 42.0601 986.045 42.44 985.671 42.8141C985.382 43.1026 985.062 43.2318 984.873 43.2318C984.843 43.2316 984.823 43.2283 984.811 43.2253ZM991.438 51.1332C991.47 51.2383 991.399 51.6182 991.025 51.9921C990.737 52.2806 990.417 52.4098 990.228 52.4098C990.198 52.4098 990.177 52.4064 990.166 52.4033C990.133 52.2984 990.204 51.9185 990.578 51.5444C990.866 51.2559 991.186 51.1267 991.375 51.1267C991.405 51.1269 991.426 51.1302 991.438 51.1332ZM995.261 47.3099C995.294 47.4149 995.223 47.7947 994.849 48.1688C994.56 48.4573 994.241 48.5863 994.052 48.5863C994.022 48.5863 994.001 48.5829 993.989 48.5798C993.956 48.4747 994.027 48.0948 994.401 47.7209C994.69 47.4324 995.009 47.3033 995.198 47.3033C995.228 47.3034 995.249 47.3069 995.261 47.3099ZM993.1 40.6286L994.373 41.9019L993.916 42.3903L992.611 41.0851L993.1 40.6286ZM954.426 60.9265C956.182 59.1702 958.635 58.3392 961.517 58.5237C964.031 58.6845 966.65 59.626 968.986 61.1922L960.808 68.8381L953.678 61.7079C953.914 61.45 954.162 61.19 954.426 60.9265ZM963.961 76.5501L965.175 75.2515L972.189 82.2652C971.695 82.6539 971.204 82.9971 970.709 83.2984L963.961 76.5501ZM962.937 75.5265L959.475 72.0648L960.774 70.8507L964.151 74.2277L962.937 75.5265ZM961.948 76.5841L958.319 80.4661L954.536 76.6829L958.418 73.0537L961.948 76.5841ZM958.452 71.0409L951.704 64.2928C952.005 63.7977 952.347 63.307 952.736 62.8128L959.75 69.8268L958.452 71.0409ZM933.661 46.2505C934.02 46.0575 934.423 45.9549 934.842 45.9549C935.51 45.9549 936.138 46.215 936.61 46.6873L936.972 47.0491C936.324 47.113 935.69 47.3383 935.132 47.7213L933.661 46.2505ZM936.182 48.7714C937.127 48.2658 938.331 48.4098 939.129 49.2053L951.706 61.7826C951.316 62.2694 950.966 62.754 950.653 63.2426L936.182 48.7714ZM927.809 106.131L933.67 100.27L934.732 101.332L928.87 107.193C928.69 107.021 928.509 106.849 928.332 106.671C928.154 106.493 927.981 106.313 927.809 106.131ZM935.848 100.401L934.601 99.1535L939.191 92.2413L942.761 95.8112L935.848 100.401ZM966.524 87.4549C966.513 87.4799 966.474 87.4576 966.474 87.4576C966.442 87.3811 966.415 87.3146 966.382 87.2538C966.184 86.784 965.885 86.413 965.493 86.1495C963.579 84.8691 960.201 86.6932 957.636 90.3926C955.915 92.8748 955.061 95.5496 955.407 97.373C955.557 98.1629 955.934 98.7796 956.497 99.1556C956.626 99.2425 956.875 99.379 957.706 99.7256C955.916 100.549 954.539 102.051 953.907 103.879C952.935 106.684 951.543 109.086 949.986 110.643C946.759 113.871 942.65 113.842 939.772 113.251C936.429 112.564 933.004 110.778 929.948 108.162L936.216 101.894L945.035 96.0385L938.964 89.9675L933.108 98.7859L926.84 105.054C924.224 101.997 922.438 98.5721 921.751 95.2298C921.159 92.3515 921.131 88.2429 924.359 85.0151C925.916 83.4571 928.319 82.0655 931.125 81.0959C932.12 80.7508 933.046 80.1672 933.805 79.4084C934.419 78.7943 934.913 78.0846 935.276 77.2956C935.673 78.2451 935.792 78.4231 935.845 78.5032C936.223 79.0681 936.841 79.4458 937.632 79.5958C939.456 79.9413 942.13 79.0866 944.609 77.3656C948.308 74.8006 950.133 71.4235 948.853 69.5084C948.587 69.1146 948.216 68.8162 947.747 68.6203C947.682 68.5854 947.607 68.5533 947.512 68.5135C947.513 68.5025 947.521 68.4882 947.545 68.4785C949.419 67.7126 950.475 66.4116 950.977 65.6128L957.394 72.0299L952.454 76.6478L958.354 82.5474L962.972 77.6078L969.39 84.0258C968.592 84.5245 967.294 85.5755 966.524 87.4549ZM992.012 102.088L990.755 103.345L988.059 100.649L989.316 99.3922L992.012 102.088ZM988.292 98.3689L987.036 99.6254L971.759 84.3487C972.248 84.0356 972.732 83.6857 973.219 83.2954L988.292 98.3689ZM976.476 73.4864C976.66 76.3689 975.83 78.8201 974.075 80.5753C973.811 80.8389 973.551 81.0872 973.294 81.3235L966.164 74.1939L973.808 66.0176C975.374 68.3533 976.315 70.9718 976.476 73.4864ZM965.14 73.17L961.832 69.8617L985.626 47.616L987.386 49.3757L965.14 73.17ZM986.684 46.6273L987.602 45.7688L989.233 47.3999L988.374 48.318L986.684 46.6273ZM990.222 46.3422L988.66 44.78L989.578 43.9213L991.081 45.4238L990.222 46.3422ZM990.636 42.9324L991.554 42.0741L992.928 43.4479L992.069 44.366L990.636 42.9324ZM996.05 41.4364C996.028 41.4695 995.978 41.4605 995.963 41.4451L993.557 39.0393C993.552 39.034 993.538 39.0203 993.54 38.9935C993.543 38.9667 993.559 38.9559 993.566 38.9519L997.303 36.4569C997.313 36.4504 997.323 36.4471 997.335 36.4471C997.346 36.4471 997.362 36.45 997.375 36.4638L998.538 37.6265C998.557 37.6457 998.56 37.6759 998.545 37.6985L996.05 41.4364Z" fill="black"/>
<path d="M947.062 79.2698C947.264 79.2698 947.453 79.3483 947.596 79.4909C947.889 79.7843 947.889 80.2616 947.596 80.5549L947.283 80.8671C947.148 81.0028 947.071 81.1869 947.071 81.3786C947.071 81.5706 947.148 81.7547 947.283 81.8904L947.577 82.1836C947.859 82.4662 948.317 82.4662 948.6 82.1836C948.807 81.9763 948.862 81.6744 948.765 81.4166C949.473 80.5534 949.425 79.2733 948.619 78.4678C948.203 78.0519 947.65 77.8229 947.062 77.8229C946.474 77.8229 945.921 78.0519 945.505 78.4678L939.827 84.1464C939.533 84.4408 939.054 84.4408 938.76 84.1464C938.466 83.853 938.466 83.3757 938.76 83.0824L939.072 82.7702C939.208 82.6346 939.284 82.4504 939.284 82.2585C939.284 82.0666 939.207 81.8826 939.072 81.7468L938.779 81.4537C938.496 81.171 938.038 81.1712 937.755 81.4537C937.548 81.661 937.493 81.9631 937.59 82.2207C936.882 83.0839 936.931 84.3641 937.736 85.1697C938.166 85.599 938.729 85.8135 939.293 85.8135C939.857 85.8135 940.421 85.5988 940.85 85.1697L946.528 79.4909C946.671 79.3483 946.861 79.2698 947.062 79.2698Z" fill="black"/>
<path d="M953.584 86.2352C953.327 86.1382 953.025 86.1934 952.817 86.4007C952.535 86.6834 952.535 87.1414 952.817 87.424L953.111 87.7172C953.393 87.9998 953.851 87.9998 954.134 87.7172L954.446 87.405C954.739 87.1118 955.217 87.1116 955.51 87.405C955.804 87.6991 955.804 88.1778 955.51 88.4719L949.831 94.1506C948.973 95.0091 948.973 96.4057 949.831 97.2641C950.247 97.6796 950.799 97.9084 951.387 97.9084C951.901 97.9084 952.388 97.7331 952.781 97.4108C953.038 97.5079 953.34 97.4526 953.548 97.2451C953.83 96.9623 953.83 96.5043 953.547 96.2218L953.254 95.9285C952.971 95.646 952.514 95.6462 952.231 95.9285L951.919 96.2408C951.776 96.3829 951.588 96.4611 951.387 96.4611C951.186 96.4611 950.997 96.3828 950.855 96.2406C950.561 95.9465 950.561 95.4678 950.855 95.1737L956.533 89.495C957.392 88.6365 957.392 87.2398 956.533 86.3813C955.728 85.576 954.447 85.5272 953.584 86.2352Z" fill="black"/>
<path d="M950.315 90.7817C950.5 90.7817 950.685 90.711 950.827 90.5699C951.109 90.2871 951.109 89.8291 950.827 89.5466L945.455 84.1745C945.172 83.8919 944.714 83.8919 944.431 84.1745C944.149 84.4572 944.149 84.9152 944.431 85.1978L949.803 90.5699C949.945 90.711 950.13 90.7817 950.315 90.7817Z" fill="black"/>
</g>
<line x1="858" y1="75.5" x2="46" y2="75.4999" stroke="black"/>
<line x1="1873" y1="75.5001" x2="1038" y2="75.5" stroke="black"/>
<defs>
<clipPath id="clip0">
<rect x="920" y="35" width="80" height="80" fill="white"/>
</clipPath>
</defs>
</svg>
